<?xml version="1.0" encoding="utf-8"?>
<!-- Generator: Adobe Illustrator 26.0.3, SVG Export Plug-In . SVG Version: 6.00 Build 0)  -->
<svg version="1.1" id="Layer_1" xmlns="http://www.w3.org/2000/svg" xmlns:xlink="http://www.w3.org/1999/xlink" x="0px" y="0px"
	 viewBox="0 0 273.7 273.9" style="enable-background:new 0 0 273.7 273.9;" xml:space="preserve">
<style type="text/css">
	.st0{fill:#FDFFF2;}
</style>
<g>
	<path d="M213.8,52.2c-9.2-8.8-19.2-16.7-29.9-23.7c-0.9-0.6-1.9-0.9-3-0.9c-7.2-0.3-14.4,0.2-21.4,1.6c-0.3,0-0.5,0.2-0.7,0.4
		c-0.2,0.2-0.3,0.4-0.3,0.7c0,0.3,0,0.5,0.1,0.8c0.1,0.2,0.3,0.4,0.6,0.5C201,53,236.9,93.2,251.5,137.5
		c12.8,35.6,8.6,82.1-21.3,104.3c-12.3,9.4-27,15-42.4,16.2c-0.9,0.1-1.7,0.3-2.4,0.8c-7,4.3-14.3,8.2-21.8,11.6
		c-0.2,0.1-0.4,0.3-0.6,0.6c-0.1,0.2-0.2,0.5-0.1,0.8c0,0.3,0.2,0.5,0.3,0.7c0.2,0.2,0.4,0.3,0.7,0.4c72.2,8.7,122.7-46.8,106.9-122
		C262.8,113,242,79.2,213.8,52.2z"/>
	<path d="M59.8,221.7c9.2,8.8,19.2,16.7,29.9,23.7c0.9,0.6,1.9,0.9,3,0.9c7.2,0.3,14.4-0.2,21.4-1.6c0.3,0,0.5-0.2,0.7-0.4
		c0.2-0.2,0.3-0.4,0.3-0.7c0-0.3,0-0.5-0.1-0.8c-0.1-0.2-0.3-0.4-0.6-0.6c-41.9-21.4-77.7-61.5-92.4-105.9
		C9.3,100.8,13.5,54.3,43.4,32.1C55.6,22.6,70.4,17,85.9,15.8c0.9-0.1,1.7-0.3,2.4-0.8c7-4.3,14.3-8.2,21.8-11.6
		c0.2-0.1,0.4-0.3,0.6-0.5c0.1-0.2,0.2-0.5,0.1-0.8c0-0.3-0.2-0.5-0.3-0.7c-0.2-0.2-0.4-0.3-0.7-0.4C37.6-7.8-12.9,47.6,2.9,122.8
		C10.9,160.9,31.6,194.7,59.8,221.7z"/>
	<path d="M221.4,214c8.8-9.2,16.7-19.2,23.6-29.9c0.6-0.9,0.9-1.9,0.9-3c0.3-7.2-0.2-14.4-1.6-21.5c0-0.3-0.2-0.5-0.4-0.7
		c-0.2-0.2-0.4-0.3-0.7-0.3c-0.3,0-0.5,0-0.8,0.1c-0.2,0.1-0.4,0.3-0.5,0.6c-21.4,41.9-61.5,77.8-105.8,92.4
		c-35.6,12.8-82,8.6-104.2-21.3c-9.4-12.3-15-27-16.2-42.5c-0.1-0.9-0.4-1.7-0.8-2.4c-4.3-7.1-8.2-14.4-11.6-22
		c-0.1-0.2-0.3-0.4-0.6-0.6s-0.5-0.2-0.8-0.1c-0.3,0-0.5,0.2-0.7,0.4C1.2,163.5,1,163.7,1,164c-8.7,72.2,46.8,122.9,121.9,107
		C160.8,263,194.5,242.3,221.4,214z"/>
	<path d="M52.2,59.9c-8.8,9.2-16.7,19.2-23.6,29.9c-0.6,0.9-0.9,1.9-0.9,3c-0.3,7.2,0.2,14.4,1.6,21.5c0.1,0.3,0.2,0.5,0.4,0.7
		c0.2,0.2,0.4,0.3,0.7,0.3c0.3,0,0.5,0,0.8-0.1c0.2-0.1,0.4-0.3,0.6-0.5C52.9,72.7,93,36.7,137.3,22.1c35.6-12.8,82-8.6,104.2,21.3
		c9.4,12.3,15,27,16.2,42.4c0.1,0.9,0.4,1.7,0.8,2.4c4.3,7.1,8.2,14.4,11.6,22c0.1,0.2,0.3,0.4,0.6,0.5c0.2,0.1,0.5,0.2,0.8,0.1
		c0.3,0,0.5-0.2,0.7-0.3c0.2-0.2,0.3-0.4,0.4-0.7c8.7-72.3-46.7-122.9-121.9-107C112.8,10.9,79.1,31.6,52.2,59.9z"/>
</g>
</svg>
