<?xml version="1.0" encoding="utf-8"?>
<!-- Generator: Adobe Illustrator 26.0.3, SVG Export Plug-In . SVG Version: 6.00 Build 0)  -->
<svg version="1.1" id="Layer_1" xmlns="http://www.w3.org/2000/svg" xmlns:xlink="http://www.w3.org/1999/xlink" x="0px" y="0px"
	 viewBox="0 0 786.1 96.9" style="enable-background:new 0 0 786.1 96.9;" xml:space="preserve">
<style type="text/css">
	.st0{fill:#FDFFF2;}
</style>
<path d="M618.2,5.1V92c0,0.2,0,0.3-0.1,0.5c-0.1,0.1-0.2,0.3-0.3,0.4c-0.1,0.1-0.2,0.2-0.4,0.3c-0.1,0.1-0.3,0.1-0.5,0.1h-13.1
	c-0.3,0-0.6-0.1-0.8-0.3c-0.2-0.2-0.4-0.5-0.4-0.8V81c0-0.3-0.1-0.6-0.3-0.8c-0.2-0.2-0.5-0.3-0.7-0.4c-0.7,0-1.3,0.4-1.8,1.2
	c-2.7,4.4-6.5,8-11,10.6c-5.6,3-12,4.4-18.3,4.1c-11,0-19.7-3.1-26-9.4c-6.3-6.2-9.5-15.1-9.6-26.7V5.1c0-0.3,0.1-0.6,0.4-0.8
	c0.2-0.2,0.5-0.3,0.8-0.3h13.2c0.3,0,0.6,0.1,0.8,0.3c0.2,0.2,0.4,0.5,0.4,0.8v52c0,8.1,2.1,14.2,6.3,18.5c4.2,4.3,10.2,6.4,18,6.4
	c8.7,0,15.5-2.6,20.4-7.9c4.9-5.2,7.4-13.2,7.4-23.9V5.2c0-0.2,0-0.3,0.1-0.5c0.1-0.1,0.2-0.3,0.3-0.4c0.1-0.1,0.2-0.2,0.4-0.3
	c0.1-0.1,0.3-0.1,0.5-0.1h13.2c0.3,0,0.6,0.1,0.9,0.3C618,4.4,618.2,4.7,618.2,5.1L618.2,5.1z M639,91.9V5c0-0.3,0.1-0.6,0.4-0.8
	c0.2-0.2,0.5-0.3,0.8-0.4h13.2c0.3,0,0.6,0.1,0.8,0.3c0.2,0.2,0.4,0.5,0.4,0.8v11.9c0,0.3,0.1,0.6,0.3,0.8c0.2,0.2,0.5,0.4,0.8,0.4
	c0.8,0,1.4-0.5,1.8-1.5c1.5-4.2,4.3-7.7,8.1-10c4.4-2.3,9.4-3.4,14.4-3.2h8.9c0.3,0,0.6,0.1,0.8,0.3c0.2,0.2,0.4,0.5,0.4,0.8v12.7
	c0,0.2,0,0.3-0.1,0.5c-0.1,0.1-0.1,0.3-0.3,0.4c-0.1,0.1-0.2,0.2-0.4,0.3c-0.1,0.1-0.3,0.1-0.5,0.1h-11.3c-7.5,0-13.2,1.8-17.2,5.5
	s-5.9,9.8-5.9,18.4v49.5c0,0.3-0.1,0.6-0.4,0.8c-0.2,0.2-0.5,0.3-0.8,0.3h-13.2c-0.3,0-0.6-0.1-0.8-0.3
	C639.2,92.4,639.1,92.2,639,91.9L639,91.9z M376.9,91.9V5c0-0.2,0-0.3,0.1-0.5c0.1-0.1,0.2-0.3,0.3-0.4c0.1-0.1,0.2-0.2,0.4-0.3
	c0.1-0.1,0.3-0.1,0.5-0.1h13.1c0.3,0,0.6,0.1,0.8,0.3c0.2,0.2,0.4,0.5,0.4,0.8v10.1c0,0.2,0,0.3,0,0.5s0.1,0.3,0.3,0.4
	c0.1,0.1,0.3,0.2,0.4,0.3s0.3,0.1,0.5,0c0.6,0,1.1-0.4,1.6-1.3c2.3-4.1,5.8-7.6,9.9-10c5-2.7,10.7-4,16.4-3.7
	c6.4-0.3,12.7,1.3,18.1,4.5c4.6,2.9,8.2,7.1,10.4,12.1c0.1,0.4,0.4,0.7,0.7,1c0.3,0.2,0.7,0.4,1.1,0.4c0.2,0,0.5,0,0.7-0.1
	c0.2-0.1,0.4-0.2,0.5-0.4c0.3-0.5,0.6-1,0.8-1.5c2.2-4.9,5.9-9,10.6-11.7c5.7-3.1,12.2-4.5,18.6-4.2c6.4-0.2,12.8,1.4,18.3,4.7
	c4.8,3.1,8.5,7.6,10.7,12.8c2.4,5.9,3.6,12.2,3.5,18.6V92c0,0.3-0.1,0.6-0.4,0.8c-0.2,0.2-0.5,0.3-0.8,0.3h-13.2
	c-0.2,0-0.3,0-0.5-0.1c-0.1-0.1-0.3-0.1-0.4-0.3c-0.1-0.1-0.2-0.2-0.3-0.4c-0.1-0.1-0.1-0.3-0.1-0.5V38.2c0-15.5-7.4-23.2-22.1-23.2
	c-4.1,0-8.1,0.9-11.7,2.8c-3.8,2-6.9,5-8.8,8.8c-2.4,5-3.6,10.4-3.3,15.9v49.5c0,0.3-0.1,0.6-0.4,0.8c-0.2,0.2-0.5,0.3-0.8,0.3
	h-13.2c-0.3,0-0.6-0.1-0.8-0.3c-0.2-0.2-0.4-0.5-0.4-0.8V38.2c0-15.5-7.4-23.2-22.1-23.2c-4,0-8,0.9-11.6,2.8
	c-3.8,2-6.8,5.1-8.8,8.8c-2.5,4.9-3.6,10.4-3.4,15.9v49.5c0,0.2,0,0.3-0.1,0.5c-0.1,0.1-0.2,0.3-0.3,0.4c-0.1,0.1-0.2,0.2-0.4,0.3
	c-0.1,0.1-0.3,0.1-0.5,0.1h-13.1c-0.2,0-0.3,0-0.5-0.1c-0.2-0.1-0.3-0.1-0.4-0.2c-0.1-0.1-0.2-0.2-0.3-0.4
	C377,92.2,376.9,92.1,376.9,91.9z M218,91.9V5c0-0.3,0.1-0.6,0.4-0.8c0.2-0.2,0.5-0.3,0.8-0.3h13.1c0.3,0,0.6,0.1,0.8,0.3
	c0.2,0.2,0.4,0.5,0.4,0.8v10.1c0,0.2,0,0.3,0,0.5s0.1,0.3,0.3,0.4c0.1,0.1,0.3,0.2,0.4,0.3c0.2,0,0.3,0.1,0.5,0
	c0.6,0,1.1-0.4,1.6-1.3c2.3-4.1,5.8-7.6,9.9-10c5-2.7,10.7-4,16.4-3.7c6.3-0.3,12.6,1.3,18.1,4.5c4.6,2.9,8.2,7.1,10.4,12.1
	c0.1,0.4,0.4,0.7,0.7,1c0.3,0.2,0.7,0.4,1.1,0.4c0.2,0,0.5,0,0.7-0.1c0.2-0.1,0.4-0.2,0.5-0.4c0.3-0.5,0.6-1,0.8-1.5
	c2.2-4.9,5.9-9,10.6-11.7c5.7-3.1,12.2-4.5,18.6-4.2c6.4-0.2,12.8,1.4,18.3,4.7c4.8,3.1,8.5,7.5,10.7,12.8
	c2.5,5.9,3.7,12.2,3.6,18.5v54.6c0,0.2,0,0.3-0.1,0.5c-0.1,0.1-0.2,0.3-0.3,0.4s-0.2,0.2-0.4,0.3c-0.1,0.1-0.3,0.1-0.5,0.1h-13.2
	c-0.2,0-0.3,0-0.5-0.1c-0.1-0.1-0.3-0.1-0.4-0.3c-0.1-0.1-0.2-0.2-0.3-0.4c-0.1-0.1-0.1-0.3-0.1-0.5V38.2c0-15.5-7.4-23.2-22.1-23.2
	c-4.1,0-8.1,0.9-11.7,2.8c-3.8,2-6.9,5-8.8,8.8c-2.4,5-3.6,10.4-3.3,15.9v49.5c0,0.3-0.1,0.6-0.4,0.8c-0.2,0.2-0.5,0.3-0.8,0.3
	h-13.2c-0.3,0-0.6-0.1-0.8-0.3c-0.2-0.2-0.4-0.5-0.4-0.8V38.2c0-15.5-7.4-23.2-22.1-23.2c-4.1,0-8.1,0.9-11.7,2.8
	c-3.8,2-6.8,5.1-8.8,8.8c-2.5,4.9-3.6,10.4-3.4,15.9v49.5c0,0.2,0,0.3-0.1,0.5c-0.1,0.1-0.2,0.3-0.3,0.4c-0.1,0.1-0.2,0.2-0.4,0.3
	c-0.1,0.1-0.3,0.1-0.5,0.1h-13.2c-0.2,0-0.3,0-0.5-0.1c-0.2-0.1-0.3-0.1-0.4-0.3c-0.1-0.1-0.2-0.2-0.3-0.4
	C218,92.2,218,92.1,218,91.9z M711.6,38.5c0.6-3.5,1.7-6.9,3.4-10.1c2.5-4.8,6.4-8.7,11.2-11.2c4.9-2.5,10.3-3.8,15.8-3.7
	c8.6,0,15.3,2.2,20.3,6.7c5,4.9,7.9,11.5,8,18.4c0,0.2,0,0.3-0.1,0.5c-0.1,0.2-0.1,0.3-0.3,0.4c-0.1,0.1-0.3,0.2-0.4,0.3
	c-0.2,0.1-0.3,0.1-0.5,0.1h-56.3c-0.2,0-0.3,0-0.5-0.1c-0.2-0.1-0.3-0.2-0.4-0.3c-0.1-0.1-0.2-0.3-0.3-0.4
	C711.6,38.9,711.6,38.7,711.6,38.5L711.6,38.5z M784.8,65.1h-14c-0.3,0-0.5,0.1-0.7,0.2c-0.2,0.2-0.4,0.4-0.4,0.6
	c-1.3,4.8-4.1,9-8,12.1c-4.2,3.4-10.7,5.1-19.3,5.1c-8.3,0.3-16.3-2.7-22.4-8.2c-5.1-4.7-8.1-11.9-8.7-21c0-0.2,0-0.3,0.1-0.5
	s0.1-0.3,0.3-0.4c0.1-0.1,0.3-0.2,0.4-0.3c0.2-0.1,0.3-0.1,0.5-0.1h72.3c0.2,0,0.3,0,0.5-0.1c0.1-0.1,0.3-0.1,0.4-0.3
	c0.1-0.1,0.2-0.2,0.3-0.4c0.1-0.1,0.1-0.3,0.1-0.5V44c0.1-7.8-1.6-15.6-5-22.7c-3.3-6.5-8.4-12-14.8-15.6c-7.4-4-15.7-5.9-24.2-5.7
	c-8.6-0.2-17.1,1.8-24.6,5.8c-6.9,3.9-12.5,9.6-16.1,16.6c-4,8.1-6,17-5.7,26c0,14.9,4,26.7,12,35.4c8,8.6,19.6,13,34.9,13
	c6.4,0.1,12.8-0.9,18.9-2.9c4.8-1.7,9.3-4.3,13.1-7.7c3.3-3,6-6.4,8.1-10.3c1.6-2.9,2.8-6,3.6-9.3c0.1-0.2,0.1-0.4,0-0.6
	c0-0.2-0.1-0.4-0.2-0.5c-0.1-0.2-0.3-0.3-0.5-0.3C785.2,65.1,785,65.1,784.8,65.1z M92,59.6c-0.5,6.5-2.6,12.8-6,18.4
	c-3.6,5.9-8.9,10.7-15.1,13.8c-7.3,3.6-15.4,5.3-23.5,5.1c-8.5,0.1-17-1.9-24.5-5.7c-7.1-3.7-12.9-9.4-16.8-16.4
	C2.1,66.5,0,57.5,0,48.4S2.1,30.3,6.1,22c3.8-7,9.7-12.7,16.8-16.4c7.6-3.8,16-5.7,24.5-5.6c8.1-0.2,16.1,1.5,23.4,5
	c6.1,3,11.2,7.6,14.9,13.2c3.2,5,5.2,10.7,5.7,16.6c0,0.2,0,0.3-0.1,0.5c-0.1,0.2-0.1,0.3-0.3,0.4c-0.1,0.1-0.3,0.2-0.4,0.3
	c-0.2,0.1-0.3,0.1-0.5,0.1H76.2c-0.3,0-0.6-0.1-0.8-0.3c-0.2-0.2-0.4-0.4-0.4-0.7c-0.7-5.7-3.4-11-7.6-15c-4.4-4.1-11.1-6.2-20-6.2
	C43.2,13.7,39,14.4,35,16c-3.9,1.5-7.5,3.9-10.4,6.9c-5.8,6-8.7,14.6-8.7,25.6S18.8,68,24.6,74c3,3,6.5,5.3,10.4,6.9
	s8.1,2.3,12.4,2.1c9,0,16-2.4,20.6-7c4.5-4.5,7.2-10.5,7.8-16.8c0-0.3,0.2-0.6,0.4-0.8c0.2-0.2,0.5-0.3,0.8-0.3h13.8
	c0.2,0,0.3,0,0.5,0.1c0.2,0.1,0.3,0.2,0.4,0.3c0.1,0.1,0.2,0.3,0.3,0.4c0.1,0.2,0.1,0.3,0.1,0.5V59.6z M177.2,74.3
	c-6.3,5.8-14.6,9.1-23.3,9.1c-8.6,0-17-3.2-23.3-9.1c-6.1-6.2-9.2-14.8-9.2-25.8c0-11.1,3.1-19.7,9.2-25.8c6.3-5.8,14.7-9,23.3-9
	c8.6,0,16.9,3.2,23.3,9c6.1,6,9.1,14.6,9.1,25.8c0,11.2-3,19.7-9.1,25.7V74.3z M178.2,5.7c-7.6-3.6-15.9-5.5-24.3-5.5
	c-8.4,0-16.7,1.9-24.3,5.5c-7.3,3.6-13.3,9.3-17.3,16.3c-4.2,8.2-6.4,17.3-6.4,26.6s2.2,18.3,6.4,26.6c4.1,7,10.1,12.6,17.3,16.3
	c7.6,3.6,15.9,5.5,24.3,5.5c8.4,0,16.7-1.9,24.3-5.5c7.3-3.6,13.3-9.3,17.3-16.3c4.2-8.2,6.4-17.3,6.4-26.6s-2.2-18.3-6.4-26.6
	C191.4,15,185.4,9.4,178.2,5.7z"/>
</svg>
