<?xml version="1.0" encoding="utf-8"?>
<!-- Generator: Adobe Illustrator 26.0.3, SVG Export Plug-In . SVG Version: 6.00 Build 0)  -->
<svg version="1.1" id="Layer_1" xmlns="http://www.w3.org/2000/svg" xmlns:xlink="http://www.w3.org/1999/xlink" x="0px" y="0px"
	 viewBox="0 0 1136.7 267.9" style="enable-background:new 0 0 1136.7 267.9;" xml:space="preserve">
<style type="text/css">
	.st0{fill:#FDFFF2;}
</style>
<path d="M968.8,90.6v86.9c0,0.2,0,0.3-0.1,0.5c-0.1,0.1-0.2,0.3-0.3,0.4c-0.1,0.1-0.2,0.2-0.4,0.3c-0.1,0.1-0.3,0.1-0.5,0.1h-13.1
	c-0.3,0-0.6-0.1-0.8-0.3c-0.2-0.2-0.4-0.5-0.4-0.8v-11c0-0.3-0.1-0.6-0.3-0.8c-0.2-0.2-0.5-0.3-0.7-0.4c-0.7,0-1.3,0.4-1.8,1.2
	c-2.7,4.4-6.5,8-11,10.6c-5.6,3-12,4.4-18.3,4.1c-11,0-19.7-3.1-26-9.4c-6.3-6.2-9.5-15.1-9.6-26.7V90.6c0-0.3,0.1-0.6,0.4-0.8
	c0.2-0.2,0.5-0.3,0.8-0.3h13.2c0.3,0,0.6,0.1,0.8,0.3c0.2,0.2,0.4,0.5,0.4,0.8v52c0,8.1,2.1,14.2,6.3,18.5c4.2,4.3,10.2,6.4,18,6.4
	c8.7,0,15.5-2.6,20.4-7.9c4.9-5.2,7.4-13.2,7.4-23.9V90.6c0-0.2,0-0.3,0.1-0.5c0.1-0.1,0.2-0.3,0.3-0.4c0.1-0.1,0.2-0.2,0.4-0.3
	c0.1-0.1,0.3-0.1,0.5-0.1h13.2c0.3,0,0.6,0.1,0.9,0.3C968.6,89.9,968.7,90.2,968.8,90.6L968.8,90.6z M989.6,177.4V90.5
	c0-0.3,0.1-0.6,0.4-0.8c0.2-0.2,0.5-0.3,0.8-0.4h13.2c0.3,0,0.6,0.1,0.8,0.3c0.2,0.2,0.4,0.5,0.4,0.8v11.9c0,0.3,0.1,0.6,0.3,0.8
	c0.2,0.2,0.5,0.4,0.8,0.4c0.8,0,1.4-0.5,1.8-1.5c1.5-4.2,4.3-7.7,8.1-10c4.4-2.3,9.4-3.4,14.4-3.2h8.9c0.3,0,0.6,0.1,0.8,0.3
	c0.2,0.2,0.4,0.5,0.4,0.8v12.7c0,0.2,0,0.3-0.1,0.5c-0.1,0.1-0.1,0.3-0.3,0.4c-0.1,0.1-0.2,0.2-0.4,0.3c-0.1,0.1-0.3,0.1-0.5,0.1
	h-11.3c-7.5,0-13.2,1.8-17.2,5.5c-3.9,3.7-5.9,9.8-5.9,18.4v49.5c0,0.3-0.1,0.6-0.4,0.8c-0.2,0.2-0.5,0.3-0.8,0.3h-13.2
	c-0.3,0-0.6-0.1-0.8-0.3C989.8,177.9,989.6,177.7,989.6,177.4L989.6,177.4z M727.5,177.4V90.5c0-0.2,0-0.3,0.1-0.5
	c0.1-0.1,0.2-0.3,0.3-0.4c0.1-0.1,0.2-0.2,0.4-0.3c0.1-0.1,0.3-0.1,0.5-0.1h13.1c0.3,0,0.6,0.1,0.8,0.3c0.2,0.2,0.4,0.5,0.4,0.8
	v10.1c0,0.2,0,0.3,0,0.5c0.1,0.2,0.1,0.3,0.3,0.4c0.1,0.1,0.3,0.2,0.4,0.3c0.2,0,0.3,0.1,0.5,0c0.6,0,1.1-0.4,1.6-1.3
	c2.3-4.1,5.8-7.6,9.9-10c5-2.7,10.7-4,16.4-3.7c6.4-0.3,12.7,1.3,18.1,4.5c4.6,2.9,8.2,7.1,10.4,12.1c0.1,0.4,0.4,0.7,0.7,1
	c0.3,0.2,0.7,0.4,1.1,0.4c0.2,0,0.5,0,0.7-0.1c0.2-0.1,0.4-0.2,0.5-0.4c0.3-0.5,0.6-1,0.8-1.5c2.2-4.9,5.9-9,10.6-11.7
	c5.7-3.1,12.2-4.5,18.6-4.2c6.4-0.2,12.8,1.4,18.3,4.7c4.8,3.1,8.5,7.6,10.7,12.8c2.4,5.9,3.6,12.2,3.5,18.6v54.6
	c0,0.3-0.1,0.6-0.4,0.8c-0.2,0.2-0.5,0.3-0.8,0.3h-13.2c-0.2,0-0.3,0-0.5-0.1c-0.1-0.1-0.3-0.1-0.4-0.3c-0.1-0.1-0.2-0.2-0.3-0.4
	c-0.1-0.1-0.1-0.3-0.1-0.5v-53.8c0-15.5-7.4-23.2-22.1-23.2c-4.1,0-8.1,0.9-11.7,2.8c-3.8,2-6.9,5-8.8,8.8c-2.4,5-3.6,10.4-3.3,15.9
	v49.5c0,0.3-0.1,0.6-0.4,0.8c-0.2,0.2-0.5,0.3-0.8,0.3h-13.2c-0.3,0-0.6-0.1-0.8-0.3c-0.2-0.2-0.4-0.5-0.4-0.8v-53.7
	c0-15.5-7.4-23.2-22.1-23.2c-4,0-8,0.9-11.6,2.8c-3.8,2-6.8,5.1-8.8,8.8c-2.5,4.9-3.6,10.4-3.4,15.9v49.5c0,0.2,0,0.3-0.1,0.5
	s-0.2,0.3-0.3,0.4c-0.1,0.1-0.2,0.2-0.4,0.3c-0.1,0.1-0.3,0.1-0.5,0.1h-13.1c-0.2,0-0.3,0-0.5-0.1c-0.2-0.1-0.3-0.1-0.4-0.2
	c-0.1-0.1-0.2-0.2-0.3-0.4C727.5,177.7,727.5,177.6,727.5,177.4z M568.5,177.4V90.5c0-0.3,0.1-0.6,0.4-0.8c0.2-0.2,0.5-0.3,0.8-0.3
	h13.1c0.3,0,0.6,0.1,0.8,0.3c0.2,0.2,0.4,0.5,0.4,0.8v10.1c0,0.2,0,0.3,0,0.5c0.1,0.2,0.1,0.3,0.3,0.4c0.1,0.1,0.3,0.2,0.4,0.3
	c0.2,0,0.3,0.1,0.5,0c0.6,0,1.1-0.4,1.6-1.3c2.3-4.1,5.8-7.6,9.9-10c5-2.7,10.7-4,16.4-3.7c6.3-0.3,12.6,1.3,18.1,4.5
	c4.6,2.9,8.2,7.1,10.4,12.1c0.1,0.4,0.4,0.7,0.7,1c0.3,0.2,0.7,0.4,1.1,0.4c0.2,0,0.5,0,0.7-0.1c0.2-0.1,0.4-0.2,0.5-0.4
	c0.3-0.5,0.6-1,0.8-1.5c2.2-4.9,5.9-9,10.6-11.7c5.7-3.1,12.2-4.5,18.6-4.2c6.4-0.2,12.8,1.4,18.3,4.7c4.8,3.1,8.5,7.5,10.7,12.8
	c2.5,5.9,3.7,12.2,3.6,18.5v54.6c0,0.2,0,0.3-0.1,0.5c-0.1,0.1-0.2,0.3-0.3,0.4s-0.2,0.2-0.4,0.3c-0.1,0.1-0.3,0.1-0.5,0.1h-13.2
	c-0.2,0-0.3,0-0.5-0.1c-0.1-0.1-0.3-0.1-0.4-0.3s-0.2-0.2-0.3-0.4c-0.1-0.1-0.1-0.3-0.1-0.5v-53.7c0-15.5-7.4-23.2-22.1-23.2
	c-4.1,0-8.1,0.9-11.7,2.8c-3.8,2-6.9,5-8.8,8.8c-2.4,5-3.6,10.4-3.3,15.9v49.5c0,0.3-0.1,0.6-0.4,0.8c-0.2,0.2-0.5,0.3-0.8,0.3
	h-13.2c-0.3,0-0.6-0.1-0.8-0.3c-0.2-0.2-0.4-0.5-0.4-0.8v-53.7c0-15.5-7.4-23.2-22.1-23.2c-4.1,0-8.1,0.9-11.7,2.8
	c-3.8,2-6.8,5.1-8.8,8.8c-2.5,4.9-3.6,10.4-3.4,15.9v49.5c0,0.2,0,0.3-0.1,0.5c-0.1,0.1-0.2,0.3-0.3,0.4c-0.1,0.1-0.2,0.2-0.4,0.3
	c-0.1,0.1-0.3,0.1-0.5,0.1h-13.2c-0.2,0-0.3,0-0.5-0.1c-0.2-0.1-0.3-0.1-0.4-0.3c-0.1-0.1-0.2-0.2-0.3-0.4
	C568.5,177.7,568.5,177.6,568.5,177.4z M1062.2,124c0.6-3.5,1.7-6.9,3.4-10.1c2.5-4.8,6.4-8.7,11.2-11.2c4.9-2.5,10.3-3.8,15.8-3.7
	c8.6,0,15.3,2.2,20.3,6.7c5,4.9,7.9,11.5,8,18.4c0,0.2,0,0.3-0.1,0.5c-0.1,0.2-0.1,0.3-0.3,0.4c-0.1,0.1-0.3,0.2-0.4,0.3
	c-0.2,0.1-0.3,0.1-0.5,0.1h-56.3c-0.2,0-0.3,0-0.5-0.1c-0.2-0.1-0.3-0.2-0.4-0.3c-0.1-0.1-0.2-0.3-0.3-0.4
	C1062.2,124.4,1062.2,124.2,1062.2,124L1062.2,124z M1135.4,150.6h-14c-0.3,0-0.5,0.1-0.7,0.2c-0.2,0.2-0.4,0.4-0.4,0.6
	c-1.3,4.8-4.1,9-8,12.1c-4.2,3.4-10.7,5.1-19.3,5.1c-8.3,0.3-16.3-2.7-22.4-8.2c-5.1-4.7-8.1-11.9-8.7-21c0-0.2,0-0.3,0.1-0.5
	c0.1-0.2,0.1-0.3,0.3-0.4c0.1-0.1,0.3-0.2,0.4-0.3c0.2-0.1,0.3-0.1,0.5-0.1h72.3c0.2,0,0.3,0,0.5-0.1c0.1-0.1,0.3-0.1,0.4-0.3
	c0.1-0.1,0.2-0.2,0.3-0.4c0.1-0.1,0.1-0.3,0.1-0.5v-7.6c0.1-7.8-1.6-15.6-5-22.7c-3.3-6.5-8.4-12-14.8-15.6
	c-7.4-4-15.7-5.9-24.2-5.7c-8.6-0.2-17.1,1.8-24.6,5.8c-6.9,3.9-12.5,9.6-16.1,16.6c-4,8.1-6,17-5.7,26c0,14.9,4,26.7,12,35.4
	c8,8.6,19.6,13,34.9,13c6.4,0.1,12.8-0.9,18.9-2.9c4.8-1.7,9.3-4.3,13.1-7.7c3.3-3,6-6.4,8.1-10.3c1.6-2.9,2.8-6,3.6-9.3
	c0.1-0.2,0.1-0.4,0-0.6c0-0.2-0.1-0.4-0.2-0.5c-0.1-0.2-0.3-0.3-0.5-0.3C1135.8,150.6,1135.6,150.6,1135.4,150.6z M442.5,145.1
	c-0.5,6.5-2.6,12.8-6,18.4c-3.6,5.9-8.9,10.7-15.1,13.8c-7.3,3.6-15.4,5.3-23.5,5.1c-8.5,0.1-17-1.9-24.5-5.7
	c-7.1-3.7-12.9-9.4-16.8-16.4c-4-8.2-6.1-17.2-6.1-26.4c0-9.1,2.1-18.1,6.1-26.4c3.8-7,9.7-12.7,16.8-16.4c7.6-3.8,16-5.7,24.5-5.6
	c8.1-0.2,16.1,1.5,23.4,5c6.1,3,11.2,7.6,14.9,13.2c3.2,5,5.2,10.7,5.7,16.6c0,0.2,0,0.3-0.1,0.5s-0.1,0.3-0.3,0.4
	c-0.1,0.1-0.3,0.2-0.4,0.3c-0.2,0.1-0.3,0.1-0.5,0.1h-13.9c-0.3,0-0.6-0.1-0.8-0.3c-0.2-0.2-0.4-0.4-0.4-0.7c-0.7-5.7-3.4-11-7.6-15
	c-4.4-4.1-11.1-6.2-20-6.2c-4.2-0.2-8.4,0.6-12.4,2.1c-3.9,1.5-7.5,3.9-10.4,6.9c-5.8,6-8.7,14.6-8.7,25.6c0,11,2.9,19.6,8.7,25.6
	c3,3,6.5,5.3,10.4,6.9c3.9,1.6,8.1,2.3,12.4,2.1c9,0,16-2.4,20.6-7c4.5-4.5,7.2-10.5,7.8-16.8c0-0.3,0.2-0.6,0.4-0.8
	c0.2-0.2,0.5-0.3,0.8-0.3h13.8c0.2,0,0.3,0,0.5,0.1c0.2,0.1,0.3,0.2,0.4,0.3s0.2,0.3,0.3,0.4c0.1,0.2,0.1,0.3,0.1,0.5V145.1z
	 M527.7,159.8c-6.3,5.8-14.6,9.1-23.3,9.1c-8.6,0-17-3.2-23.3-9.1C475,153.6,472,145,472,134c0-11.1,3.1-19.7,9.2-25.8
	c6.3-5.8,14.7-9,23.3-9c8.6,0,16.9,3.2,23.3,9c6.1,6,9.1,14.6,9.1,25.8c0,11.2-3,19.7-9.1,25.7V159.8z M528.7,91.2
	c-7.6-3.6-15.9-5.5-24.3-5.5s-16.7,1.9-24.3,5.5c-7.3,3.6-13.3,9.3-17.3,16.3c-4.2,8.2-6.4,17.3-6.4,26.6s2.2,18.3,6.4,26.6
	c4.1,7,10.1,12.6,17.3,16.3c7.6,3.6,15.9,5.5,24.3,5.5s16.7-1.9,24.3-5.5c7.3-3.6,13.3-9.3,17.3-16.3c4.2-8.2,6.4-17.3,6.4-26.6
	s-2.2-18.3-6.4-26.6C542,100.5,536,94.9,528.7,91.2z M269.6,107.5c-0.1,0.3-0.2,0.5-0.4,0.7c-0.2,0.2-0.4,0.3-0.7,0.3
	c-0.3,0-0.5,0-0.8-0.1c-0.2-0.1-0.4-0.3-0.6-0.5c-3.4-7.3-7.2-14.5-11.5-21.4c-0.5-0.7-0.7-1.5-0.8-2.4c-1.1-15.1-6.7-29.5-16-41.5
	c-22-29.2-67.9-33.4-103-20.8C92.1,36,52.4,71.2,31.3,112.2c-0.1,0.2-0.3,0.4-0.5,0.5c-0.2,0.1-0.5,0.2-0.8,0.1
	c-0.3,0-0.5-0.1-0.7-0.3c-0.2-0.2-0.3-0.4-0.4-0.7c-1.3-6.9-1.8-14-1.5-21c0-1,0.4-2,0.9-2.9C35.1,77.6,43,67.8,51.6,58.8
	C78.3,31.1,111.5,10.8,149.2,3C223.3-12.7,278.2,36.9,269.6,107.5L269.6,107.5z M121.4,265C47.1,280.5-7.7,231,0.9,160.3
	c0-0.3,0.2-0.5,0.4-0.7s0.4-0.3,0.7-0.3c0.3,0,0.5,0,0.8,0.1c0.2,0.1,0.4,0.3,0.5,0.6c3.4,7.4,7.2,14.6,11.5,21.5
	c0.4,0.7,0.7,1.5,0.8,2.4c1.1,15.1,6.7,29.5,16,41.5c22,29.2,67.9,33.4,103,20.8c43.8-14.2,83.4-49.4,104.5-90.4
	c0.1-0.2,0.3-0.4,0.5-0.6c0.2-0.1,0.5-0.2,0.8-0.1c0.3,0,0.5,0.2,0.7,0.3c0.2,0.2,0.3,0.4,0.4,0.7c1.3,6.9,1.8,14,1.6,21
	c-0.1,1-0.4,2-0.9,2.9c-6.8,10.5-14.7,20.3-23.4,29.3C192.2,237,158.9,257.3,121.4,265L121.4,265z M2.9,120.2
	C-12.8,46.7,37.2-7.6,108.5,0.9c0.3,0,0.5,0.2,0.7,0.4c0.2,0.2,0.3,0.4,0.3,0.7c0,0.3,0,0.5-0.1,0.8c-0.1,0.2-0.3,0.4-0.6,0.5
	c-7.5,3.3-14.7,7.1-21.7,11.4c-0.7,0.4-1.5,0.7-2.4,0.8C69.6,16.5,55,22,42.9,31.3c-29.5,21.8-33.7,67.2-21,102
	c14.4,43.4,49.9,82.6,91.3,103.5c0.2,0.1,0.4,0.3,0.5,0.5s0.2,0.5,0.1,0.7c0,0.3-0.1,0.5-0.3,0.7c-0.2,0.2-0.4,0.3-0.7,0.4
	c-7,1.3-14.1,1.8-21.2,1.5c-1-0.1-2-0.4-2.9-0.9c-10.6-6.8-20.4-14.5-29.5-23.1C31.2,190.4,10.8,157.4,2.9,120.2z M267.5,147.7
	c15.7,73.6-34.3,127.9-105.6,119.3c-0.3,0-0.5-0.2-0.7-0.4s-0.3-0.4-0.3-0.7c0-0.3,0-0.5,0.1-0.8c0.1-0.2,0.3-0.4,0.6-0.5
	c7.4-3.3,14.6-7.1,21.6-11.4c0.7-0.4,1.5-0.7,2.4-0.8c15.2-1.1,29.8-6.6,41.9-15.8c29.5-21.8,33.7-67.2,21-102
	C234.2,91.3,198.6,52,157.2,31.1c-0.2-0.1-0.4-0.3-0.5-0.5s-0.2-0.5-0.1-0.7c0-0.3,0.1-0.5,0.3-0.7c0.2-0.2,0.4-0.3,0.7-0.4
	c7-1.3,14.1-1.8,21.2-1.5c1,0.1,2,0.4,2.9,0.9c10.6,6.7,20.5,14.4,29.7,23C239.2,77.5,259.7,110.5,267.5,147.7z"/>
</svg>
